PathFileType	4	(X/Y/Z)	D:\TRACE\v60_Jaco2_6-2-23\JustArmDRS_Motion2_4-platform.trc
DataRate	CameraRate	NumFrames	NumMarkers	Units	OrigDataRate	OrigDataStartFrame	OrigNumFrames
100.00	100.00	      37	5	mm	100.00	863	      6902
Frame#	Time	Left_Front			Right_Front			Left_Aft			Right_Aft			Post			
		X1	Y1	Z1	X2	Y2	Z2	X3	Y3	Z3	X4	Y4	Z4	X5	Y5	Z5	

863	8.620	-797.26538	-24.33805	-646.22443	772.58881	-22.64778	-651.28711	-705.76752	30.19791	487.84186	736.78784	30.53077	497.34821	-11.24804	1257.73083	-1037.89966	
864	8.630	-796.11615	-23.18976	-645.49860	773.74066	-21.30288	-651.08722	-704.55701	29.24374	488.27310	737.70142	29.55667	497.69681	-10.25235	1259.57288	-1034.87524	
865	8.640	-795.30939	-21.91142	-645.56525	774.92010	-20.05996	-651.04840	-703.43213	28.41853	488.60550	738.90540	28.64764	498.02524	-9.21648	1261.90247	-1031.51831	
866	8.650	-793.64801	-20.63815	-645.51245	775.99664	-18.74966	-650.58252	-702.06830	27.33285	488.96832	740.12537	27.78953	498.38422	-8.15997	1264.06128	-1028.43652	
867	8.660	-792.50146	-19.62694	-645.06573	777.04761	-17.19000	-650.32330	-701.12225	26.66148	489.35397	740.82025	26.83751	498.85095	-7.08263	1266.30896	-1025.03125	
868	8.670	-791.47113	-18.33622	-644.92749	778.34686	-15.97634	-650.20721	-699.81836	25.47187	489.79041	742.43927	25.76443	499.02869	-5.55682	1268.15894	-1021.74670	
869	8.680	-791.05103	-15.98763	-644.68658	779.11768	-14.45942	-649.88800	-698.85718	24.79927	489.89960	743.25098	24.59482	499.42957	-4.39776	1270.56604	-1018.05286	
870	8.690	-789.62817	-14.83706	-644.21729	780.48145	-13.10535	-649.52185	-697.75592	23.57090	490.37964	744.63843	23.68930	499.81870	-3.52780	1272.70581	-1014.31091	
871	8.700	-788.42596	-13.13931	-644.01953	781.61414	-11.79190	-649.30322	-696.65192	22.80112	490.68207	745.51447	22.60980	500.17877	-2.51933	1275.21265	-1010.63879	
872	8.710	-787.23022	-11.80829	-643.71442	782.65717	-10.16972	-649.16321	-695.31921	21.61661	491.24957	746.91864	21.64595	500.65601	-1.57508	1277.34717	-1006.59949	
873	8.720	-786.24030	-10.33189	-643.19135	784.01392	-8.79083	-648.62671	-694.14056	20.70262	491.43292	747.87970	20.68124	500.97394	-0.19877	1279.70544	-1002.67273	
874	8.730	-785.01874	-8.91277	-643.22510	784.83337	-7.47619	-648.48132	-693.11652	19.73829	491.91391	749.12897	19.67142	501.32239	1.01298	1281.95703	-998.80664	
875	8.740	-783.93146	-7.44463	-642.64691	786.05933	-5.73804	-648.27148	-692.06995	18.66040	492.20059	749.97699	18.66858	501.74442	2.01260	1284.31897	-994.93518	
876	8.750	-782.79767	-5.97679	-642.22925	787.20776	-4.30222	-647.77472	-691.02612	17.64684	492.54575	751.37097	17.56869	501.99200	3.13651	1286.53870	-991.93274	
877	8.760	-781.74933	-4.07920	-642.15137	788.27917	-2.64432	-647.38379	-689.76733	16.56427	492.97089	752.53943	16.37403	502.42517	4.02018	1288.71167	-988.84436	
878	8.770	-780.73413	-2.66312	-641.67725	789.43042	-1.22733	-647.28497	-688.67126	15.65123	493.23285	753.38434	15.24842	502.75348	5.37297	1291.11853	-985.91614	
879	8.780	-779.35278	-1.13172	-641.33405	790.55280	0.27000	-646.71893	-687.58447	14.39807	493.62805	754.78711	14.28364	503.19342	6.48372	1293.43384	-983.35687	
880	8.790	-778.33948	0.33919	-640.90723	791.58728	1.99257	-646.39441	-686.69330	13.43557	493.90073	755.42670	13.09809	503.59607	7.87769	1295.80322	-980.66168	
881	8.800	-777.56323	1.85776	-640.60785	792.62537	3.38709	-646.23865	-685.50006	12.26211	494.40695	756.66388	12.04947	503.87497	8.94506	1298.10522	-977.72876	
882	8.810	-776.53198	3.67805	-640.47675	793.71613	5.02202	-645.80835	-684.41821	11.27651	494.76541	757.73627	10.83400	504.28439	9.79813	1300.47864	-974.80713	
883	8.820	-775.16199	5.03102	-639.99316	794.83295	6.55975	-645.30920	-683.36523	10.19599	495.25616	758.71875	9.72425	504.62222	10.93644	1302.81433	-971.98700	
884	8.830	-774.07043	6.44129	-639.61420	795.86017	8.17586	-645.09125	-682.17688	9.07827	495.51819	760.14038	8.66596	505.03360	11.99818	1305.03125	-968.57452	
885	8.840	-773.13959	8.31315	-639.39038	796.99335	9.66027	-644.68127	-681.38477	8.05397	495.88419	761.08099	7.59199	505.49014	13.13203	1307.25024	-965.38574	
886	8.850	-772.22656	9.73091	-638.91571	797.81958	11.14864	-644.29529	-680.31696	6.86058	496.16769	762.18237	6.38693	505.81030	14.46177	1309.53003	-961.28583	
887	8.860	-771.22461	11.31314	-638.55524	798.94476	12.92882	-643.84021	-679.28101	5.93831	496.49362	763.02954	5.21415	506.03934	15.32678	1312.01965	-957.76105	
888	8.870	-769.93408	12.84720	-638.19446	799.82098	14.35084	-643.49109	-678.23273	4.72834	496.98495	763.87189	4.01796	506.50146	16.59514	1314.30383	-953.46350	
889	8.880	-768.89056	14.33311	-637.74554	800.86127	15.85012	-643.26563	-677.29474	3.86199	497.33255	764.91418	3.03561	506.92856	17.15716	1316.59937	-949.70026	
890	8.890	-768.12451	16.30608	-637.42822	801.77551	17.48187	-643.02649	-676.22455	2.60440	497.70679	765.54700	1.84399	507.21252	18.33701	1318.79187	-945.61829	
891	8.900	-767.18927	17.66146	-637.08160	802.72296	19.00450	-642.32135	-675.41046	1.41626	497.98541	767.14899	0.75218	507.37845	18.74100	1321.30103	-941.57147	
892	8.910	-766.31152	19.20323	-636.55414	803.81329	20.59162	-641.81726	-674.33514	0.45942	498.43719	767.78510	-0.37400	507.81479	19.91649	1323.42798	-937.66357	
893	8.920	-765.21210	20.84235	-636.18567	804.69775	22.05618	-641.65894	-673.27411	-0.77723	498.71634	768.68762	-1.68701	508.17227	20.85468	1325.59766	-934.07660	
894	8.930	-764.25732	22.24588	-635.71838	805.63354	23.58391	-641.30011	-672.55566	-1.59133	499.18405	769.92249	-2.59151	508.60596	21.91011	1327.73767	-930.86133	
895	8.940	-763.35260	24.05374	-635.74146	806.59583	25.37577	-640.81708	-671.54071	-2.91741	499.32516	770.64075	-3.81145	508.95001	22.79967	1329.89160	-928.01355	
896	8.950	-762.67285	25.43211	-635.10968	807.39642	26.72458	-640.26917	-670.81018	-3.84040	499.63538	771.33502	-4.97207	509.09601	23.86821	1332.25122	-925.17139	
897	8.960	-761.86237	26.69384	-634.36053	808.12115	28.23120	-640.09747	-669.88922	-5.07616	500.11035	772.44385	-6.05579	509.55008	24.72284	1334.37561	-922.38806	
898	8.970	-760.92676	28.50296	-634.20813	809.26233	29.78000	-639.47668	-669.16455	-5.82696	500.36349	773.08765	-7.16316	509.82501	25.39716	1336.63196	-919.76978	
899	8.980	-760.10443	29.87199	-633.81451	809.94250	31.09395	-639.06512	-668.01709	-7.02073	500.73178	773.72437	-8.21225	510.27814	26.46263	1338.56665	-916.35095	
